<mxfile host="Electron" agent="Mozilla/5.0 (Windows NT 10.0; Win64; x64) AppleWebKit/537.36 (KHTML, like Gecko) draw.io/24.7.17 Chrome/128.0.6613.36 Electron/32.0.1 Safari/537.36" version="24.7.17">
  <diagram id="C5RBs43oDa-KdzZeNtuy" name="Page-1">
    <mxGraphModel dx="1007" dy="592" grid="1" gridSize="10" guides="1" tooltips="1" connect="1" arrows="1" fold="1" page="1" pageScale="1" pageWidth="827" pageHeight="1169" math="0" shadow="0">
      <root>
        <mxCell id="WIyWlLk6GJQsqaUBKTNV-0" />
        <mxCell id="WIyWlLk6GJQsqaUBKTNV-1" parent="WIyWlLk6GJQsqaUBKTNV-0" />
        <mxCell id="5SQqn4gER_1kRGNVhBaY-2" value="" style="edgeStyle=orthogonalEdgeStyle;rounded=0;orthogonalLoop=1;jettySize=auto;html=1;" edge="1" parent="WIyWlLk6GJQsqaUBKTNV-1" source="5SQqn4gER_1kRGNVhBaY-0" target="5SQqn4gER_1kRGNVhBaY-1">
          <mxGeometry relative="1" as="geometry" />
        </mxCell>
        <mxCell id="5SQqn4gER_1kRGNVhBaY-0" value="start" style="ellipse;whiteSpace=wrap;html=1;" vertex="1" parent="WIyWlLk6GJQsqaUBKTNV-1">
          <mxGeometry x="260" y="10" width="120" height="50" as="geometry" />
        </mxCell>
        <mxCell id="5SQqn4gER_1kRGNVhBaY-4" value="" style="edgeStyle=orthogonalEdgeStyle;rounded=0;orthogonalLoop=1;jettySize=auto;html=1;" edge="1" parent="WIyWlLk6GJQsqaUBKTNV-1" source="5SQqn4gER_1kRGNVhBaY-1" target="5SQqn4gER_1kRGNVhBaY-3">
          <mxGeometry relative="1" as="geometry" />
        </mxCell>
        <mxCell id="5SQqn4gER_1kRGNVhBaY-1" value="init array" style="whiteSpace=wrap;html=1;" vertex="1" parent="WIyWlLk6GJQsqaUBKTNV-1">
          <mxGeometry x="260" y="80" width="120" height="30" as="geometry" />
        </mxCell>
        <mxCell id="5SQqn4gER_1kRGNVhBaY-6" value="" style="edgeStyle=orthogonalEdgeStyle;rounded=0;orthogonalLoop=1;jettySize=auto;html=1;" edge="1" parent="WIyWlLk6GJQsqaUBKTNV-1" source="5SQqn4gER_1kRGNVhBaY-3" target="5SQqn4gER_1kRGNVhBaY-5">
          <mxGeometry relative="1" as="geometry" />
        </mxCell>
        <mxCell id="5SQqn4gER_1kRGNVhBaY-3" value="input a[0]" style="shape=parallelogram;perimeter=parallelogramPerimeter;whiteSpace=wrap;html=1;fixedSize=1;" vertex="1" parent="WIyWlLk6GJQsqaUBKTNV-1">
          <mxGeometry x="260" y="130" width="120" height="30" as="geometry" />
        </mxCell>
        <mxCell id="5SQqn4gER_1kRGNVhBaY-8" value="" style="edgeStyle=orthogonalEdgeStyle;rounded=0;orthogonalLoop=1;jettySize=auto;html=1;" edge="1" parent="WIyWlLk6GJQsqaUBKTNV-1" source="5SQqn4gER_1kRGNVhBaY-5" target="5SQqn4gER_1kRGNVhBaY-7">
          <mxGeometry relative="1" as="geometry" />
        </mxCell>
        <mxCell id="5SQqn4gER_1kRGNVhBaY-5" value="init counter" style="whiteSpace=wrap;html=1;" vertex="1" parent="WIyWlLk6GJQsqaUBKTNV-1">
          <mxGeometry x="260" y="180" width="120" height="30" as="geometry" />
        </mxCell>
        <mxCell id="5SQqn4gER_1kRGNVhBaY-10" value="" style="edgeStyle=orthogonalEdgeStyle;rounded=0;orthogonalLoop=1;jettySize=auto;html=1;" edge="1" parent="WIyWlLk6GJQsqaUBKTNV-1" source="5SQqn4gER_1kRGNVhBaY-7" target="5SQqn4gER_1kRGNVhBaY-9">
          <mxGeometry relative="1" as="geometry" />
        </mxCell>
        <mxCell id="5SQqn4gER_1kRGNVhBaY-28" value="" style="edgeStyle=orthogonalEdgeStyle;rounded=0;orthogonalLoop=1;jettySize=auto;html=1;" edge="1" parent="WIyWlLk6GJQsqaUBKTNV-1" source="5SQqn4gER_1kRGNVhBaY-7" target="5SQqn4gER_1kRGNVhBaY-27">
          <mxGeometry relative="1" as="geometry" />
        </mxCell>
        <mxCell id="5SQqn4gER_1kRGNVhBaY-7" value="i &amp;lt; 5" style="rhombus;whiteSpace=wrap;html=1;" vertex="1" parent="WIyWlLk6GJQsqaUBKTNV-1">
          <mxGeometry x="280" y="230" width="80" height="40" as="geometry" />
        </mxCell>
        <mxCell id="5SQqn4gER_1kRGNVhBaY-12" value="" style="edgeStyle=orthogonalEdgeStyle;rounded=0;orthogonalLoop=1;jettySize=auto;html=1;" edge="1" parent="WIyWlLk6GJQsqaUBKTNV-1" source="5SQqn4gER_1kRGNVhBaY-9" target="5SQqn4gER_1kRGNVhBaY-11">
          <mxGeometry relative="1" as="geometry" />
        </mxCell>
        <mxCell id="5SQqn4gER_1kRGNVhBaY-9" value="input a[i]" style="shape=parallelogram;perimeter=parallelogramPerimeter;whiteSpace=wrap;html=1;fixedSize=1;" vertex="1" parent="WIyWlLk6GJQsqaUBKTNV-1">
          <mxGeometry x="390" y="240" width="120" height="20" as="geometry" />
        </mxCell>
        <mxCell id="5SQqn4gER_1kRGNVhBaY-17" style="edgeStyle=orthogonalEdgeStyle;rounded=0;orthogonalLoop=1;jettySize=auto;html=1;exitX=0;exitY=0.5;exitDx=0;exitDy=0;" edge="1" parent="WIyWlLk6GJQsqaUBKTNV-1" source="5SQqn4gER_1kRGNVhBaY-11" target="5SQqn4gER_1kRGNVhBaY-15">
          <mxGeometry relative="1" as="geometry" />
        </mxCell>
        <mxCell id="5SQqn4gER_1kRGNVhBaY-19" value="" style="edgeStyle=orthogonalEdgeStyle;rounded=0;orthogonalLoop=1;jettySize=auto;html=1;" edge="1" parent="WIyWlLk6GJQsqaUBKTNV-1" source="5SQqn4gER_1kRGNVhBaY-11" target="5SQqn4gER_1kRGNVhBaY-18">
          <mxGeometry relative="1" as="geometry" />
        </mxCell>
        <mxCell id="5SQqn4gER_1kRGNVhBaY-11" value="if a[i-1] &amp;lt; a[i]" style="rhombus;whiteSpace=wrap;html=1;" vertex="1" parent="WIyWlLk6GJQsqaUBKTNV-1">
          <mxGeometry x="440" y="280" width="80" height="50" as="geometry" />
        </mxCell>
        <mxCell id="5SQqn4gER_1kRGNVhBaY-32" style="edgeStyle=orthogonalEdgeStyle;rounded=0;orthogonalLoop=1;jettySize=auto;html=1;exitX=0.5;exitY=1;exitDx=0;exitDy=0;" edge="1" parent="WIyWlLk6GJQsqaUBKTNV-1" source="5SQqn4gER_1kRGNVhBaY-15">
          <mxGeometry relative="1" as="geometry">
            <mxPoint x="340" y="420" as="targetPoint" />
          </mxGeometry>
        </mxCell>
        <mxCell id="5SQqn4gER_1kRGNVhBaY-15" value="output &quot;LOSS&quot;" style="shape=parallelogram;perimeter=parallelogramPerimeter;whiteSpace=wrap;html=1;fixedSize=1;" vertex="1" parent="WIyWlLk6GJQsqaUBKTNV-1">
          <mxGeometry x="316" y="290" width="104" height="30" as="geometry" />
        </mxCell>
        <mxCell id="5SQqn4gER_1kRGNVhBaY-21" value="" style="edgeStyle=orthogonalEdgeStyle;rounded=0;orthogonalLoop=1;jettySize=auto;html=1;" edge="1" parent="WIyWlLk6GJQsqaUBKTNV-1" source="5SQqn4gER_1kRGNVhBaY-18" target="5SQqn4gER_1kRGNVhBaY-20">
          <mxGeometry relative="1" as="geometry" />
        </mxCell>
        <mxCell id="5SQqn4gER_1kRGNVhBaY-25" value="" style="edgeStyle=orthogonalEdgeStyle;rounded=0;orthogonalLoop=1;jettySize=auto;html=1;" edge="1" parent="WIyWlLk6GJQsqaUBKTNV-1" source="5SQqn4gER_1kRGNVhBaY-18" target="5SQqn4gER_1kRGNVhBaY-24">
          <mxGeometry relative="1" as="geometry" />
        </mxCell>
        <mxCell id="5SQqn4gER_1kRGNVhBaY-18" value="if a[i] &amp;lt;= 0" style="rhombus;whiteSpace=wrap;html=1;" vertex="1" parent="WIyWlLk6GJQsqaUBKTNV-1">
          <mxGeometry x="546" y="280" width="80" height="50" as="geometry" />
        </mxCell>
        <mxCell id="5SQqn4gER_1kRGNVhBaY-33" style="edgeStyle=orthogonalEdgeStyle;rounded=0;orthogonalLoop=1;jettySize=auto;html=1;exitX=0.5;exitY=1;exitDx=0;exitDy=0;" edge="1" parent="WIyWlLk6GJQsqaUBKTNV-1" source="5SQqn4gER_1kRGNVhBaY-20">
          <mxGeometry relative="1" as="geometry">
            <mxPoint x="340" y="420" as="targetPoint" />
          </mxGeometry>
        </mxCell>
        <mxCell id="5SQqn4gER_1kRGNVhBaY-20" value="output &quot;ERROR&quot;" style="shape=parallelogram;perimeter=parallelogramPerimeter;whiteSpace=wrap;html=1;fixedSize=1;" vertex="1" parent="WIyWlLk6GJQsqaUBKTNV-1">
          <mxGeometry x="650" y="290" width="110" height="30" as="geometry" />
        </mxCell>
        <mxCell id="5SQqn4gER_1kRGNVhBaY-26" style="edgeStyle=orthogonalEdgeStyle;rounded=0;orthogonalLoop=1;jettySize=auto;html=1;exitX=0;exitY=0.5;exitDx=0;exitDy=0;" edge="1" parent="WIyWlLk6GJQsqaUBKTNV-1" source="5SQqn4gER_1kRGNVhBaY-24">
          <mxGeometry relative="1" as="geometry">
            <mxPoint x="320" y="225" as="targetPoint" />
          </mxGeometry>
        </mxCell>
        <mxCell id="5SQqn4gER_1kRGNVhBaY-24" value="i++" style="whiteSpace=wrap;html=1;" vertex="1" parent="WIyWlLk6GJQsqaUBKTNV-1">
          <mxGeometry x="526" y="210" width="120" height="30" as="geometry" />
        </mxCell>
        <mxCell id="5SQqn4gER_1kRGNVhBaY-31" style="edgeStyle=orthogonalEdgeStyle;rounded=0;orthogonalLoop=1;jettySize=auto;html=1;exitX=0.5;exitY=1;exitDx=0;exitDy=0;entryX=0.5;entryY=0;entryDx=0;entryDy=0;" edge="1" parent="WIyWlLk6GJQsqaUBKTNV-1" source="5SQqn4gER_1kRGNVhBaY-27" target="5SQqn4gER_1kRGNVhBaY-29">
          <mxGeometry relative="1" as="geometry" />
        </mxCell>
        <mxCell id="5SQqn4gER_1kRGNVhBaY-27" value="output &quot;WIN&quot;" style="shape=parallelogram;perimeter=parallelogramPerimeter;whiteSpace=wrap;html=1;fixedSize=1;" vertex="1" parent="WIyWlLk6GJQsqaUBKTNV-1">
          <mxGeometry x="100" y="230" width="120" height="40" as="geometry" />
        </mxCell>
        <mxCell id="5SQqn4gER_1kRGNVhBaY-29" value="Finish" style="ellipse;whiteSpace=wrap;html=1;" vertex="1" parent="WIyWlLk6GJQsqaUBKTNV-1">
          <mxGeometry x="290" y="470" width="100" height="50" as="geometry" />
        </mxCell>
        <mxCell id="5SQqn4gER_1kRGNVhBaY-34" value="+" style="text;html=1;align=center;verticalAlign=middle;whiteSpace=wrap;rounded=0;" vertex="1" parent="WIyWlLk6GJQsqaUBKTNV-1">
          <mxGeometry x="350" y="220" width="60" height="30" as="geometry" />
        </mxCell>
        <mxCell id="5SQqn4gER_1kRGNVhBaY-35" value="-" style="text;html=1;align=center;verticalAlign=middle;whiteSpace=wrap;rounded=0;" vertex="1" parent="WIyWlLk6GJQsqaUBKTNV-1">
          <mxGeometry x="220" y="220" width="60" height="30" as="geometry" />
        </mxCell>
        <mxCell id="5SQqn4gER_1kRGNVhBaY-36" value="-" style="text;html=1;align=center;verticalAlign=middle;whiteSpace=wrap;rounded=0;" vertex="1" parent="WIyWlLk6GJQsqaUBKTNV-1">
          <mxGeometry x="500" y="280" width="60" height="30" as="geometry" />
        </mxCell>
        <mxCell id="5SQqn4gER_1kRGNVhBaY-37" value="+" style="text;html=1;align=center;verticalAlign=middle;whiteSpace=wrap;rounded=0;" vertex="1" parent="WIyWlLk6GJQsqaUBKTNV-1">
          <mxGeometry x="400" y="280" width="60" height="30" as="geometry" />
        </mxCell>
        <mxCell id="5SQqn4gER_1kRGNVhBaY-38" value="+" style="text;html=1;align=center;verticalAlign=middle;whiteSpace=wrap;rounded=0;" vertex="1" parent="WIyWlLk6GJQsqaUBKTNV-1">
          <mxGeometry x="610" y="280" width="60" height="30" as="geometry" />
        </mxCell>
        <mxCell id="5SQqn4gER_1kRGNVhBaY-39" value="-" style="text;html=1;align=center;verticalAlign=middle;whiteSpace=wrap;rounded=0;" vertex="1" parent="WIyWlLk6GJQsqaUBKTNV-1">
          <mxGeometry x="570" y="250" width="60" height="30" as="geometry" />
        </mxCell>
      </root>
    </mxGraphModel>
  </diagram>
</mxfile>
